Coordinates
version=1
nRows=8
nColumns=36
inDegrees=yes

Units are S.I. units (second, meters, Newtons, ...)
If the header above contains a line with 'inDegrees', this indicates whether rotational values are in degrees (yes) or radians (no).

endheader
time	pelvis_tilt	pelvis_list	pelvis_rotation	pelvis_tx	pelvis_ty	pelvis_tz	hip_flexion_r	hip_adduction_r	hip_rotation_r	knee_angle_r	knee_angle_r_beta	ankle_angle_r	subtalar_angle_r	mtp_angle_r	hip_flexion_l	hip_adduction_l	hip_rotation_l	knee_angle_l	knee_angle_l_beta	ankle_angle_l	subtalar_angle_l	mtp_angle_l	lumbar_extension	lumbar_bending	lumbar_rotation	arm_flex_r	arm_add_r	arm_rot_r	elbow_flex_r	pro_sup_r	arm_flex_l	arm_add_l	arm_rot_l	elbow_flex_l	pro_sup_l
      0.00000000	     -0.59728491	     -1.65213796	     12.75091507	      0.00882953	      0.93751327	     -0.15660331	     24.98203196	     -0.41393392	     -0.13201783	      5.14003956	      0.08971061	      1.51596746	     -1.09644387	     -5.74987175	    -14.23328009	     -1.95982981	      7.75166149	     13.78527185	      0.24059838	     17.95902990	     13.85939756	     -5.74987175	     -5.40888528	      0.44842240	     -9.40531668	     -4.82581190	     -7.41059157	      2.07459866	     30.48870362	    106.64158837	     11.64686962	    -17.27656550	     30.75585269	     45.83317599	    110.73415414
      0.01000000	     -0.56275863	     -2.05217618	     12.85769254	      0.02231677	      0.93722212	     -0.15572920	     24.85273911	      0.21053172	     -0.31977566	      5.96455858	      0.10410119	      0.00645226	     -1.30847108	     -5.78193678	    -14.16850466	     -2.58807070	      7.60404752	     15.21376795	      0.26553034	     16.86704206	     13.26849979	     -5.78193678	     -5.33325554	      0.98549130	     -9.40563822	     -5.07112992	     -7.48909326	      1.92113021	     30.08027014	    106.68005227	     11.62046383	    -16.77990501	     30.47708257	     45.75941048	    110.79265380
      0.02000000	     -0.56863245	     -2.41287678	     12.94566514	      0.03584392	      0.93694560	     -0.15478105	     24.70737650	      0.83269016	     -0.12285601	      6.69196480	      0.11679682	     -1.92383078	     -2.52213312	     -5.85917696	    -14.01006041	     -3.13977034	      7.59441637	     16.73172406	      0.29202367	     15.57982868	     12.35073867	     -5.85917696	     -5.19885902	      1.44347910	     -9.44750176	     -5.24171805	     -7.56303845	      1.89096130	     29.56701135	    106.79076717	     11.49242512	    -16.31265794	     29.99028112	     45.64509500	    110.93847180
      0.03000000	     -0.41869020	     -2.81728864	     13.02589761	      0.04953361	      0.93694104	     -0.15380843	     24.46071118	      1.51322073	     -0.36159351	      7.60553647	      0.13274165	     -2.99690016	     -2.71442838	     -5.87850093	    -13.85649148	     -3.82436273	      7.22021685	     18.47916067	      0.32252220	     14.18727531	     11.92630324	     -5.87850093	     -5.22700269	      2.00728415	     -9.39922015	     -5.46273593	     -7.62659769	      1.88753293	     29.18746583	    106.79282460	     11.44345844	    -15.87976588	     29.88515922	     45.62720579	    110.96601556
      0.04000000	     -0.24191513	     -3.20078123	     13.09848920	      0.06329306	      0.93715422	     -0.15281637	     24.15667963	      2.19332688	     -0.39843569	      8.58226707	      0.14978882	     -3.83249815	     -3.02640935	     -5.89377956	    -13.59547046	     -4.48102717	      7.00134512	     20.42195213	      0.35643030	     12.64634076	     11.53527284	     -5.89377956	     -5.30666117	      2.53917560	     -9.29057585	     -5.65875758	     -7.76085309	      1.87845302	     28.80380835	    106.78510795	     11.36790617	    -15.50419963	     29.74363261	     45.57970258	    110.97539698
      0.05000000	     -0.23646598	     -3.58832961	     13.10296098	      0.07711005	      0.93734388	     -0.15170270	     24.03105918	      2.90732703	     -0.06028231	      9.59169838	      0.16740672	     -4.95158163	     -4.29805954	     -5.95732087	    -12.95277834	     -5.06715263	      6.80743363	     22.62106097	      0.39481199	     10.53273384	     10.65600932	     -5.95732087	     -5.13752980	      3.03382625	     -9.25340516	     -5.77869377	     -7.87615995	      2.05057341	     28.28346327	    106.81072323	     11.04321237	    -15.09575602	     29.36932207	     45.49948060	    111.02972920
      0.06000000	      0.03549853	     -4.00336808	     13.13950443	      0.09091860	      0.93800655	     -0.15052456	     23.61285559	      3.68493332	     -0.08765041	     10.67179378	      0.18625794	     -5.08289099	     -4.74397527	     -5.97942553	    -12.32017422	     -5.83725781	      6.29342988	     25.19099667	      0.43966583	      8.35056185	     10.34080230	     -5.97942553	     -5.32172128	      3.60918060	     -9.06228772	     -5.92982758	     -7.97732745	      2.11251353	     27.94466030	    106.80315141	     10.87763294	    -14.79555840	     29.30559416	     45.51934235	    111.04734943
      0.07000000	      0.24936744	     -4.38699541	     13.14664970	      0.10458765	      0.93873048	     -0.14932369	     23.24697788	      4.43814394	     -0.00660988	     11.80445844	      0.20602667	     -4.95043664	     -5.34133309	     -6.00309888	    -11.40328804	     -6.55405190	      5.84906717	     28.04945140	      0.48955528	      5.82274367	      9.94874723	     -6.00309888	     -5.44484361	      4.14016412	     -8.83514980	     -6.05305669	     -8.07251757	      2.21809413	     27.57141717	    106.79891990	     10.66383365	    -14.47806621	     29.25929535	     45.51575610	    111.05605350
